# xmcd
#
# Track frame offsets:
#	150
#	13027
#	29522
#	48965
#	74587
#	95077
#	106242
#	125515
#	144410
#	163355
#	177000
#	193320
#	212982
#	240385
#
# Disc length: 3407 seconds
#
# Revision: 0
# Processed by: cddbd v1.5.1PL2 Copyright (c) Steve Scherf et al.
# Submitted via: dBpowerAMP V4.0
#
DISCID=cf0d4d0e
DTITLE=Shawnna - Block Music
DYEAR=2006
DGENRE=R&B
TTITLE0=Can't Do It Like Me
TTITLE1=Block Music (Bang) Feat. 1-20
TTITLE2=Damn Feat Smoke
TTITLE3=Gettin' Some [Remix] - Lil Wayne, Ludacris,  Shawnna, Too Short
TTITLE4=Candy Coated Feat. 8 Ball and MJG
TTITLE5=Roll Wit Me
TTITLE6=In tha Chi Feat. Syleena Johnson, Johnny P.
TTITLE7=Take It Slow Feat. Ludacris,  Bobby Valentino
TTITLE8=Can't Break Me Feat. Buddy Guy, Shareefa
TTITLE9=Ghetto Fairy Tales
TTITLE10=Lil Daddy What's Good
TTITLE11=Hit the Back/Slide In
TTITLE12=Chicago Feat. Buddy Guy, Malik Yusef
TTITLE13=Gettin' Some
EXTD=
EXTT0=
EXTT1=
EXTT2=
EXTT3=
EXTT4=
EXTT5=
EXTT6=
EXTT7=
EXTT8=
EXTT9=
EXTT10=
EXTT11=
EXTT12=
EXTT13=
PLAYORDER=
